<?xml version="1.0" encoding="UTF-8"?>
<svg width="512px" height="356px" viewBox="0 0 512 356" version="1.1" xmlns="http://www.w3.org/2000/svg" xmlns:xlink="http://www.w3.org/1999/xlink">
    <!-- Generator: Sketch 50.2 (55047) - http://www.bohemiancoding.com/sketch -->
    <title>music-player (3)</title>
    <desc>Created with Sketch.</desc>
    <defs></defs>
    <g id="Page-1" stroke="none" stroke-width="1" fill="none" fill-rule="evenodd">
        <g id="music-player-(3)" fill-rule="nonzero">
            <path d="M503.742,66.714 L503.742,328.462 C503.742,338.614 495.517,346.839 485.365,346.839 L439.796,346.839 L256,313.807 L72.204,346.839 L26.635,346.839 C16.483,346.839 8.258,338.614 8.258,328.462 L8.258,66.714 L256,33.682 L503.742,66.714 Z" id="Shape" fill="#A2B8C5"></path>
            <path d="M503.742,27.538 L503.742,66.714 L8.258,66.714 L8.258,27.538 C8.258,17.386 16.483,9.161 26.635,9.161 L485.365,9.161 C495.517,9.161 503.742,17.386 503.742,27.538 Z" id="Shape" fill="#D66F6F"></path>
            <polygon id="Shape" fill="#293F41" points="417.774 258.761 94.226 258.761 72.204 346.839 439.796 346.839"></polygon>
            <rect id="Rectangle-path" fill="#ECE7EA" x="243.58" y="116.758" width="119.081" height="78.452"></rect>
            <path d="M243.58,116.757 L149.339,116.757 L149.339,195.209 L243.58,195.209 C248.623,183.13 251.398,169.873 251.398,155.978 C251.398,142.083 248.623,128.825 243.58,116.757 Z" id="Shape" fill="#293F41"></path>
            <g id="Group" transform="translate(110.000000, 116.000000)" fill="#FFFFFF">
                <path d="M252.661,0.758 C274.33,0.758 291.892,18.32 291.892,39.978 C291.892,61.647 274.33,79.209 252.661,79.209 C231.003,79.209 213.441,61.647 213.441,39.978 C213.441,18.32 231.003,0.758 252.661,0.758 Z" id="Shape"></path>
                <path d="M39.339,0.758 C60.997,0.758 78.559,18.32 78.559,39.978 C78.559,61.647 60.997,79.209 39.339,79.209 C17.67,79.209 0.108,61.647 0.108,39.978 C0.108,18.32 17.67,0.758 39.339,0.758 Z" id="Shape"></path>
            </g>
            <path d="M425.786,256.758 C424.867,253.082 421.563,250.503 417.775,250.503 L94.226,250.503 C90.437,250.503 87.134,253.082 86.215,256.758 L64.194,344.836 C63.576,347.303 64.131,349.916 65.696,351.921 C67.261,353.926 69.662,355.098 72.206,355.098 L439.798,355.098 C442.341,355.098 444.742,353.926 446.306,351.921 C447.872,349.917 448.426,347.304 447.809,344.836 L425.786,256.758 Z M82.781,338.582 L100.673,267.02 L411.327,267.02 L429.218,338.582 L82.781,338.582 Z" id="Shape" fill="#000000"></path>
            <path d="M243.855,155.983 C243.855,161.296 243.411,166.62 242.537,171.81 C241.779,176.307 244.81,180.567 249.308,181.325 C249.773,181.403 250.234,181.441 250.69,181.441 C254.647,181.441 258.144,178.587 258.824,174.554 C259.851,168.461 260.372,162.212 260.372,155.983 C260.372,149.755 259.85,143.505 258.824,137.407 C258.066,132.91 253.814,129.881 249.309,130.636 C244.812,131.394 241.78,135.654 242.537,140.151 C243.411,145.344 243.855,150.671 243.855,155.983 Z" id="Shape" fill="#000000"></path>
            <path d="M485.365,0.902 L26.635,0.902 C11.949,0.902 0,12.851 0,27.538 L0,328.462 C0,343.149 11.949,355.097 26.635,355.097 L39.172,355.097 C43.733,355.097 47.43,351.401 47.43,346.839 C47.43,342.277 43.733,338.581 39.172,338.581 L26.635,338.581 C21.056,338.581 16.516,334.041 16.516,328.462 L16.516,27.538 C16.516,21.959 21.056,17.419 26.635,17.419 L485.365,17.419 C490.944,17.419 495.484,21.959 495.484,27.538 L495.484,328.462 C495.484,334.041 490.944,338.581 485.365,338.581 L472.828,338.581 C468.266,338.581 464.57,342.277 464.57,346.839 C464.57,351.401 468.266,355.097 472.828,355.097 L485.365,355.097 C500.052,355.097 512,343.148 512,328.462 L512,27.538 C512,12.851 500.051,0.902 485.365,0.902 Z" id="Shape" fill="#000000"></path>
            <path d="M149.334,108.499 C123.152,108.499 101.85,129.8 101.85,155.983 C101.85,182.164 123.151,203.466 149.334,203.466 L362.665,203.466 C388.847,203.466 410.149,182.165 410.149,155.983 C410.149,129.801 388.848,108.499 362.665,108.499 L149.334,108.499 Z M326.715,125.015 C319.537,133.337 315.182,144.157 315.182,155.983 C315.182,167.807 319.538,178.628 326.715,186.95 L185.285,186.95 C192.463,178.628 196.818,167.808 196.818,155.983 C196.818,144.157 192.462,133.337 185.285,125.015 L326.715,125.015 Z M118.367,155.983 C118.367,138.908 132.259,125.015 149.335,125.015 C166.411,125.015 180.303,138.907 180.303,155.983 C180.303,173.059 166.411,186.95 149.335,186.95 C132.259,186.95 118.367,173.058 118.367,155.983 Z M393.633,155.983 C393.633,173.058 379.741,186.95 362.665,186.95 C345.589,186.95 331.697,173.059 331.697,155.983 C331.697,138.907 345.589,125.015 362.665,125.015 C379.741,125.015 393.633,138.907 393.633,155.983 Z" id="Shape" fill="#000000"></path>
            <path d="M481.086,66.715 C481.086,62.153 477.39,58.457 472.828,58.457 L39.172,58.457 C34.611,58.457 30.914,62.153 30.914,66.715 C30.914,71.277 34.611,74.973 39.172,74.973 L472.828,74.973 C477.389,74.973 481.086,71.276 481.086,66.715 Z" id="Shape" fill="#000000"></path>
        </g>
    </g>
</svg>