<?xml version="1.0" encoding="UTF-8"?>
<svg width="457px" height="71px" viewBox="0 0 457 71" version="1.1" xmlns="http://www.w3.org/2000/svg" xmlns:xlink="http://www.w3.org/1999/xlink">
    <!-- Generator: Sketch 50.2 (55047) - http://www.bohemiancoding.com/sketch -->
    <title>Group</title>
    <desc>Created with Sketch.</desc>
    <defs></defs>
    <g id="Page-1" stroke="none" stroke-width="1" fill="none" fill-rule="evenodd">
        <g id="Group" transform="translate(0.000000, -15.000000)">
            <g id="levels" transform="translate(0.000000, 16.000000)" fill="#FF6B81" fill-rule="nonzero">
                <path d="M5.59090909,28 L1.86363636,28 C0.834909091,28 0,28.894 0,30 C0,31.106 0.834909091,32 1.86363636,32 L5.59090909,32 C6.61963636,32 7.45454545,31.106 7.45454545,30 C7.45454545,28.894 6.61963636,28 5.59090909,28 Z M80.1363636,28 L76.4090909,28 C75.3803636,28 74.5454545,28.894 74.5454545,30 C74.5454545,31.106 75.3803636,32 76.4090909,32 L80.1363636,32 C81.1650909,32 82,31.106 82,30 C82,28.894 81.1650909,28 80.1363636,28 Z" id="Shape"></path>
                <path d="M67.1333333,15 C66.1029333,15 65.2666667,15.838125 65.2666667,16.875 L65.2666667,43.125 C65.2666667,44.161875 66.1029333,45 67.1333333,45 C68.1637333,45 69,44.161875 69,43.125 L69,16.875 C69,15.838125 68.1637333,15 67.1333333,15 Z M29.8,15 C28.7696,15 27.9333333,15.838125 27.9333333,16.875 L27.9333333,43.125 C27.9333333,44.161875 28.7696,45 29.8,45 C30.8304,45 31.6666667,44.161875 31.6666667,43.125 L31.6666667,16.875 C31.6666667,15.838125 30.8304,15 29.8,15 Z M14.8666667,22.5 C13.8362667,22.5 13,23.338125 13,24.375 L13,35.625 C13,36.661875 13.8362667,37.5 14.8666667,37.5 C15.8970667,37.5 16.7333333,36.661875 16.7333333,35.625 L16.7333333,24.375 C16.7333333,23.338125 15.8970667,22.5 14.8666667,22.5 Z M59.6666667,7.5 C58.6362667,7.5 57.8,8.338125 57.8,9.375 L57.8,50.625 C57.8,51.661875 58.6362667,52.5 59.6666667,52.5 C60.6970667,52.5 61.5333333,51.661875 61.5333333,50.625 L61.5333333,9.375 C61.5333333,8.338125 60.6970667,7.5 59.6666667,7.5 Z M44.7333333,7.5 C43.7029333,7.5 42.8666667,8.338125 42.8666667,9.375 L42.8666667,50.625 C42.8666667,51.661875 43.7029333,52.5 44.7333333,52.5 C45.7637333,52.5 46.6,51.661875 46.6,50.625 L46.6,9.375 C46.6,8.338125 45.7637333,7.5 44.7333333,7.5 Z M22.3333333,7.5 C21.3029333,7.5 20.4666667,8.338125 20.4666667,9.375 L20.4666667,50.625 C20.4666667,51.661875 21.3029333,52.5 22.3333333,52.5 C23.3637333,52.5 24.2,51.661875 24.2,50.625 L24.2,9.375 C24.2,8.338125 23.3637333,7.5 22.3333333,7.5 Z M52.2,0 C51.1696,0 50.3333333,0.838125 50.3333333,1.875 L50.3333333,58.125 C50.3333333,59.161875 51.1696,60 52.2,60 C53.2304,60 54.0666667,59.161875 54.0666667,58.125 L54.0666667,1.875 C54.0666667,0.838125 53.2304,0 52.2,0 Z M37.2666667,0 C36.2362667,0 35.4,0.838125 35.4,1.875 L35.4,58.125 C35.4,59.161875 36.2362667,60 37.2666667,60 C38.2970667,60 39.1333333,59.161875 39.1333333,58.125 L39.1333333,1.875 C39.1333333,0.838125 38.2970667,0 37.2666667,0 Z" id="Shape"></path>
            </g>
            <text id="DJ-Roomba" font-family="Biko" font-size="70" font-weight="normal" fill="#FFFFFF">
                <tspan x="107" y="67">DJ Roomba</tspan>
            </text>
        </g>
    </g>
</svg>